<svg viewBox="0 0 1160.878 599.933" xmlns="http://www.w3.org/2000/svg">
  <path fill="#f3f5fd" d="M510.973,131.171H68.768a30.79,30.79,0,0,1,20.067-44.4c14.436-3.425,30.754,3.6,43.914-3.239,10.211-5.316,14.929-17.312,17.1-28.606s2.787-23.225,8.272-33.34c9.218-16.98,31.1-24.566,50-20.519s34.592,17.813,44.924,34.14c4.249,6.713,8.11,14.3,15.115,18.047,8.086,4.322,18.152,2.262,26.457-1.608s15.841-9.435,24.542-12.311c17.554-5.809,38.542,1.284,48.979,16.552,7.465,10.914,10.591,25.94,22.313,32.056,4.831,2.52,10.429,3.045,15.866,3.174,21.7.525,44-4.532,64.764,1.786C489.379,98.47,504.478,113.253,510.973,131.171Z"></path>
  <path fill="#f3f5fd" d="M1129.436,247.32H779.352c1.981-13.3,9.255-25.627,20.371-31.645,13.748-7.446,30.457-5.248,45.969-3.327s32.632,3,45.363-6.063c6.407-4.56,10.937-11.206,16.125-17.12,14.825-16.917,38.2-28.49,59.889-22.517,10.915,3.006,20.229,10.033,30.576,14.623a72.688,72.688,0,0,0,34.613,6c12.223-.905,24.386-4.9,36.512-3.11,15.37,2.288,27.959,13.569,37.072,26.158C1114.477,222.246,1120.644,233.811,1129.436,247.32Z"></path>
  <path fill="#f3f5fd" d="M38.129,599.933H1160.878c-12.3-31.373-35.018-57.988-67.049-65.884-46.85-11.534-96.43,20.183-143.176,8.257-26.558-6.768-47.466-26.492-69.437-42.87-82.886-61.8-196.472-80.062-294.551-47.353-51.268,17.089-97.982,46.974-150.5,59.679-67.91,16.436-138.929,2.806-208.768.56C159.382,510.137,61.929,537.85,38.129,599.933Z"></path>
  <g>
    <g>
      <path fill="#eda59f" d="M116.439,188.507s7.733-4.1,6.006-25.157l15.977-2.962s-1.795,18.879,6.287,24.872Z"></path>
      <g opacity="0.15">
        <path d="M141.436,181.313,128.163,171.16l10.424-.108A28.731,28.731,0,0,0,141.436,181.313Z"></path>
      </g>
      <path fill="#eda59f" d="M113.381,155.185c1.106,6.389,4.592,12.439,10.227,14.5,6.69,2.45,11.645,2.616,19.358,2.616,10.525,0,10.177-10.977,10.472-22.039.3-11.105-.586-23.018-4.746-26.888-8.3-7.724-32.673-2.833-35.637,10.087C111.522,140.145,112.328,149.1,113.381,155.185Z"></path>
      <path fill="#0f1011" d="M160.735,118.776c0-5.282-6.574-13.937-24.112-2l-.017.012a49.861,49.861,0,0,0-13.529,1.479c-8.02,2.4-18.077,9.123-15.5,25.425,2.88,18.195,10.333,23.051,14.089,25.283.957.568,1.189.1,1.521-.957a81.156,81.156,0,0,0,2.229-11.969,65.815,65.815,0,0,0,.889-11.9c0-1.766.009-8.2,8.772-8.274,4.929-.04,3.086.156,8.346.156.75,0,1.412-.034,2.022-.088l.007,0C163.615,135.942,160.735,124.059,160.735,118.776Z"></path>
      <g>
        <circle fill="#0f1011" r="1.449" cy="148.816" cx="138.399"></circle>
        <circle fill="#0f1011" r="1.449" cy="147.878" cx="149.831"></circle>
        <path fill="#0f1011" d="M152.341,144.79h-.009l-3.839-.048a.681.681,0,0,1,.009-1.361h.009l3.839.048a.681.681,0,0,1-.009,1.361Z"></path>
        <path fill="#0f1011" d="M135.271,146.191a.681.681,0,0,1-.158-1.344l3.785-.911a.681.681,0,1,1,.318,1.324l-3.785.911A.681.681,0,0,1,135.271,146.191Z"></path>
      </g>
      <path fill="#eda59f" d="M130.861,152.361a6.143,6.143,0,1,1-12.244,1,6.042,6.042,0,0,1,5.62-6.624C128.615,146.6,130.584,148.98,130.861,152.361Z"></path>
      <g opacity="0.15">
        <path d="M144.831,156.853a.5.5,0,0,1-.146-.978l2.946-.905-2.061-4.591a.5.5,0,0,1,.912-.41l2.294,5.107a.506.506,0,0,1,0,.412.5.5,0,0,1-.309.271l-3.488,1.072A.5.5,0,0,1,144.831,156.853Z"></path>
      </g>
    </g>
    <g>
      <path fill="#eda59f" d="M223.287,589.113l-20.853-2.479c.938-7.893,2-17.374,2.072-18.928,0,.1,0,.181,0,.244h21C225.5,568.58,225.5,570.5,223.287,589.113Z"></path>
      <path fill="#eda59f" d="M129.612,591.624l-21-.069s.07-21.684.07-23.6h21C129.682,569.877,129.612,591.624,129.612,591.624Z"></path>
      <path fill="#55affc" d="M194.532,586.419l36.009-8.5c-23.315-91.528-42.879-184.952-61.828-277.469l-.267.079-.782-5.33L91.588,290.5s-2.962,37.257-2.96,49.7c.007,61.005,9.709,162.43,14.529,243.589l36.952-1.893c-2.174-78.7-8.047-157.514-7.625-236.235C154.611,425.305,176.678,505.8,194.532,586.419Z"></path>
      <path fill="#c1d8ed" d="M155.14,599.746a4.107,4.107,0,0,0,4.076-4.427h0a4.106,4.106,0,0,0-2.659-3.529L132.115,583.6a3.464,3.464,0,0,0-2.872.319,19.107,19.107,0,0,1-11.468,3.4,17.026,17.026,0,0,1-8.821-3.222,1.547,1.547,0,0,0-2.527,1.2v11.952a2.678,2.678,0,0,0,2.689,2.678Z"></path>
      <path fill="#c1d8ed" d="M248.873,599.746a4.108,4.108,0,0,0,4.077-4.427h0a4.109,4.109,0,0,0-2.659-3.529L225.848,583.6a3.465,3.465,0,0,0-2.872.319,19.1,19.1,0,0,1-11.468,3.4,17.026,17.026,0,0,1-8.82-3.222,1.547,1.547,0,0,0-2.528,1.2v11.952a2.678,2.678,0,0,0,2.689,2.678Z"></path>
    </g>
    <g>
      <path fill="#eda59f" d="M222.026,198.38s1.6-11.9,10.046-10.248c5.329,1.045,31.02,2.964,31.117,5.339.241,5.875-23.3,4.438-26.071,9.545Z"></path>
      <path fill="#eda59f" d="M229.008,188.147s12.332-2.423,15.163-1.376c2.506.927-3.384,4.474-3.384,4.474Z"></path>
    </g>
    <g>
      <path fill="#eda59f" d="M41.165,198.38s-1.6-11.9-10.046-10.248C25.79,189.177.1,191.1,0,193.471c-.241,5.875,23.3,4.438,26.071,9.545Z"></path>
      <path fill="#eda59f" d="M34.183,188.147s-12.332-2.423-15.163-1.376c-2.506.927,3.384,4.474,3.384,4.474Z"></path>
    </g>
    <path fill="#fff" d="M148.947,163.654s-5.284-1-9.128,0c0,0,.318-3.509,4.564-3.509S148.947,163.654,148.947,163.654Z"></path>
    <path fill="#2f3235" d="M221.988,191.378l-29.06,43.69-22.8-42.779-.225.119c-3.1-5.4-8.7-8.88-18.33-9.295-.63-.03-1.64-.05-2.94-.07-.26,5.5-34.32,5.48-35.04-.13-9.62.01-17.51,2.96-22.08,7.53a20.251,20.251,0,0,0-4.354,6.364h0l-22.8,39.256L39.374,190.273l-19.14,10.445L54.5,263.5a10.9,10.9,0,0,0,9.425,5.679h.145a10.9,10.9,0,0,0,9.427-5.428l17.656-30.4c2.091,7.119,3.945,14.181,3.945,20.683,0,21.01-9.5,30.42-8.8,41.2,1.1,16.94,83.43,12.94,87.62,3.31,4.32-9.92-4.45-16.04-4.06-48.5.04-3.433.3-7.02.657-10.672l11.758,22.066a10.9,10.9,0,0,0,9.091,5.762c.178.009.355.013.531.013a10.9,10.9,0,0,0,9.076-4.865l39.172-58.894Z"></path>
    <path fill="#eda59f" d="M148.637,183.043c-.26,5.5-3.25,13.59-12.48,14.2-12.3.81-21.84-8.72-22.56-14.33h.03C125.737,182.913,141.577,182.933,148.637,183.043Z"></path>
  </g>
  <path fill="#8ddbe0" d="M1043.85,593.583c19.806-6.138,39.023-14.159,56.532-36.608,3.593-4.6,6.969-10.494,5-16-1.481-4.144-5.768-6.8-10.124-7.476a21.008,21.008,0,0,0-4.9-.135c-.008,0-.017.006-.019,0a41.337,41.337,0,0,0-7.413,1.455l-.692.2a122.117,122.117,0,0,0-32.669,14.755,4.811,4.811,0,0,1-6.7-6.55,29.091,29.091,0,0,1,3.58-4.7,46.214,46.214,0,0,1,6.514-5.649c3.114-2.271,6.437-4.3,9.687-6.373a268.34,268.34,0,0,0,34.241-25.876c7.64-6.806,15.112-14.359,18.743-23.927,1.668-4.4,2.428-9.473.437-13.738-3.284-7-12.586-8.962-20.193-7.509-13.33,2.553-23.979,12.324-33.422,22.064-7.831,8.093-16.606,17.053-27.857,17.551a9.85,9.85,0,0,1-5.546-1.113c-3.21-1.944-4.034-6.448-2.891-10.024s3.791-6.433,6.346-9.177c14.851-15.933,29.465-32.507,39.109-52.029s13.914-42.571,7.213-63.3c-1.964-6.06-4.916-11.956-9.521-16.358s-11.064-7.163-17.386-6.32c-8.613,1.134-15.1,8.4-19.463,15.908-15,25.754-14.084,57.309-18.309,86.809-1.182,8.259-2.9,16.729-7.82,23.527a5.572,5.572,0,0,1-1.725,1.61c-4.048,2.344-7.681-2.383-9.2-6.394-6-15.869-7.5-34.017-18.243-47.151-4.1-5-9.9-9.178-16.365-9.137-7.894.054-14.655,6.648-16.958,14.2s-.926,15.756,1.542,23.255c4.582,13.906,12.8,26.4,22.472,37.379,5.1,5.8,10.871,11.656,12.4,19.219a15.334,15.334,0,0,1-4.813,14.134,8.989,8.989,0,0,1-6.655,2.176c-2.591-.238-4.936-1.56-7.2-2.844-.948-.54-1.9-1.089-2.857-1.626q-5.659-3.222-11.321-6.452c-9.6-5.474-21.181-11.067-31.176-6.353-5.1,2.41-8.441,7.148-10.013,12.586a27.541,27.541,0,0,0,0,15.1c2.978,10.263,21.741,38.822,29.481,46.187C944.738,577.478,976.083,614.586,1043.85,593.583Z"></path>
  <g>
    <path fill="#9ebcea" d="M384.743,156.529c-.313.629-.635,1.256-.955,1.884q-1.305,2.556-2.692,5.092c-.3.547-.592,1.1-.9,1.644q-1.824,3.261-3.78,6.488c-.148.242-.3.483-.45.725-1.37,2.231-2.778,4.451-4.247,6.655l-48.73,73.73h42.526l48.73-73.73c1.467-2.2,2.874-4.422,4.243-6.651.15-.244.306-.487.454-.732.1-.157.2-.312.291-.469,1.207-1.994,2.362-4,3.489-6.018.3-.544.595-1.093.894-1.639q1.389-2.538,2.7-5.1c.319-.625.639-1.25.951-1.877,1.094-2.2,2.159-4.414,3.161-6.641H387.9C386.9,152.117,385.836,154.327,384.743,156.529Z"></path>
    <polygon fill="#9ebcea" points="484.441 85.447 441.916 85.447 441.916 252.747 473.907 252.747 473.907 296.45 441.916 296.45 441.916 351.608 484.441 351.608 484.441 296.45 516.433 296.45 516.433 252.747 484.441 252.747 484.441 85.447"></polygon>
    <path fill="#9ebcea" d="M598.186,309.781c.341.028.687.048,1.033.066.236.012.466.037.7.044q.572.018,1.153.018H643.6c-.629,0-1.242-.031-1.854-.062-.348-.018-.694-.038-1.036-.066-.434-.035-.862-.083-1.287-.135-.33-.04-.662-.08-.986-.13-.468-.072-.928-.159-1.385-.251-.241-.049-.485-.092-.723-.146-.593-.136-1.174-.293-1.747-.464-.1-.029-.2-.05-.295-.081q-1.022-.317-2-.711c-.188-.075-.368-.165-.554-.245-.45-.192-.9-.389-1.333-.605-.724-.36-1.433-.748-2.12-1.175-.064-.04-.124-.087-.187-.127q-.931-.591-1.818-1.265c-.32-.244-.63-.505-.941-.765-.239-.2-.483-.391-.717-.6-.327-.293-.642-.608-.96-.919-.211-.208-.429-.406-.636-.622-.346-.362-.678-.749-1.012-1.134-.165-.191-.337-.369-.5-.565-.489-.594-.964-1.211-1.425-1.857h0c-.46-.645-.9-1.319-1.337-2.016-.144-.234-.279-.485-.42-.724-.281-.477-.563-.953-.833-1.453-.159-.3-.31-.614-.465-.92-.236-.466-.474-.928-.7-1.413-.16-.342-.31-.7-.465-1.053-.246-.56-.5-1.114-.729-1.7-.313-.786-.615-1.612-.911-2.456q-.1-.293-.2-.589c-.288-.845-.57-1.712-.841-2.613-.033-.109-.064-.224-.1-.334-.247-.83-.485-1.686-.717-2.562-.056-.213-.113-.424-.168-.639q-.372-1.447-.72-2.973c-.043-.188-.084-.382-.126-.571q-.3-1.377-.59-2.821c-.042-.207-.084-.41-.125-.619-.133-.7-.258-1.425-.386-2.144-.1-.579-.21-1.147-.308-1.741-.12-.723-.23-1.477-.343-2.223-.092-.6-.188-1.188-.274-1.8-.112-.787-.213-1.605-.318-2.415-.078-.607-.161-1.2-.235-1.82-.1-.857-.195-1.749-.29-2.631-.066-.609-.136-1.2-.2-1.822-.1-.977-.184-1.99-.273-3-.05-.557-.1-1.1-.15-1.662-.1-1.184-.183-2.406-.268-3.629-.03-.422-.064-.827-.092-1.253q-.163-2.493-.294-5.091c-.017-.345-.03-.709-.046-1.057-.067-1.4-.131-2.809-.184-4.255,0-.162-.009-.33-.015-.493q-.079-2.232-.135-4.541c-.012-.529-.023-1.064-.035-1.6q-.039-1.881-.065-3.809c-.007-.535-.014-1.066-.02-1.606-.018-1.779-.03-3.579-.03-5.417,0-1.914.012-3.79.031-5.641.007-.6.018-1.188.027-1.784.018-1.238.037-2.47.063-3.68.015-.686.034-1.359.052-2.035.029-1.1.061-2.193.1-3.268.024-.686.049-1.364.075-2.039q.063-1.572.136-3.107c.031-.654.061-1.308.095-1.952.056-1.053.118-2.085.182-3.111.036-.574.069-1.155.107-1.721.083-1.233.175-2.439.27-3.633.026-.328.049-.667.076-.991q.19-2.277.41-4.457c.02-.2.043-.394.063-.593.122-1.186.252-2.347.388-3.49.039-.329.078-.658.118-.984.159-1.286.324-2.551.5-3.782.021-.143.043-.28.064-.423q.242-1.658.506-3.245c.05-.3.1-.6.15-.9.2-1.161.4-2.3.62-3.409.017-.086.035-.167.052-.252.2-1.03.417-2.031.636-3.013.06-.27.121-.54.182-.806.166-.721.34-1.417.514-2.111.106-.421.211-.85.32-1.262.185-.7.378-1.368.572-2.036.1-.336.191-.684.291-1.012q.414-1.368.857-2.651c.023-.066.044-.137.066-.2q.5-1.439,1.033-2.771c.318-.8.652-1.566.994-2.319.1-.216.2-.427.3-.639q.405-.859.832-1.68c.094-.179.185-.363.279-.539.37-.688.75-1.357,1.143-2,.1-.162.2-.312.3-.471.316-.5.636-.992.966-1.465.151-.217.3-.425.459-.636q.443-.606.9-1.181c.166-.207.331-.412.5-.613.324-.385.656-.756.992-1.119.152-.165.3-.336.457-.5a27.859,27.859,0,0,1,3.1-2.767c.172-.132.349-.253.524-.379.379-.276.763-.544,1.155-.8.206-.133.414-.261.623-.388q.575-.348,1.168-.665c.207-.111.413-.224.623-.329.458-.23.926-.442,1.4-.644.15-.064.3-.136.447-.2q.938-.379,1.913-.69c.158-.05.321-.089.48-.137.5-.149,1.006-.288,1.521-.409.236-.056.476-.1.715-.154.457-.095.92-.182,1.388-.256.253-.04.508-.079.764-.114.492-.065.991-.116,1.494-.159.231-.02.459-.045.692-.06.736-.047,1.481-.076,2.241-.076H601.076c-.76,0-1.5.029-2.241.076-.234.015-.461.04-.692.06-.5.043-1,.094-1.494.159-.257.035-.511.074-.764.114-.468.074-.931.161-1.388.256-.239.05-.479.1-.715.154-.515.121-1.021.26-1.521.409-.159.047-.322.087-.481.137q-.974.31-1.911.69c-.153.062-.3.134-.451.2-.471.2-.937.413-1.394.642-.211.106-.417.219-.625.331q-.592.317-1.169.665c-.207.126-.415.254-.62.387-.392.253-.776.521-1.156.8-.174.127-.353.249-.524.38-.54.412-1.069.842-1.583,1.3l-.009.007c-.516.461-1.017.951-1.509,1.459-.156.162-.307.333-.46.5-.334.362-.664.731-.987,1.115-.169.2-.336.41-.5.618q-.456.572-.9,1.176c-.153.212-.31.421-.46.639-.33.472-.649.961-.964,1.461-.1.16-.205.312-.3.475-.023.037-.046.07-.069.107-.369.61-.725,1.244-1.073,1.893-.095.177-.186.361-.28.541q-.426.819-.83,1.678c-.1.212-.2.423-.3.639-.342.753-.676,1.521-1,2.319q-.051.127-.1.258-.478,1.213-.93,2.515c-.02.054-.037.114-.056.169q-.447,1.3-.868,2.682c-.1.327-.192.674-.289,1.008-.194.67-.388,1.344-.574,2.043-.108.408-.212.833-.317,1.252-.116.461-.237.906-.35,1.38-.056.242-.11.5-.167.743-.061.263-.121.529-.18.795-.221.989-.435,2-.64,3.035-.016.078-.033.153-.048.232-.217,1.109-.422,2.254-.622,3.42-.05.293-.1.59-.148.886q-.264,1.594-.507,3.254c-.021.143-.043.28-.064.423-.176,1.232-.342,2.5-.5,3.788-.04.32-.077.645-.116.969q-.2,1.711-.387,3.485c-.022.206-.045.405-.066.612l-.024.226q-.207,2.068-.385,4.225c-.027.324-.05.664-.076.991-.1,1.194-.187,2.4-.27,3.633-.038.564-.072,1.143-.107,1.714-.064,1.032-.126,2.069-.182,3.127-.034.637-.064,1.284-.1,1.93q-.073,1.543-.136,3.123-.04,1.011-.075,2.036c-.037,1.075-.068,2.167-.1,3.268-.018.676-.037,1.35-.052,2.035-.026,1.21-.046,2.442-.063,3.68-.009.6-.02,1.182-.027,1.784-.019,1.851-.031,3.727-.031,5.641,0,1.838.012,3.638.029,5.417.006.54.014,1.072.021,1.606q.025,1.927.065,3.809c.011.535.022,1.07.035,1.6q.057,2.305.135,4.542c.006.162.009.33.015.492,0,.037,0,.075,0,.111.052,1.412.115,2.786.18,4.155.017.344.029.7.046,1.046q.131,2.6.294,5.091c.029.447.065.872.1,1.314.084,1.2.167,2.4.263,3.563.05.607.109,1.186.161,1.782.085.965.169,1.938.262,2.875.065.647.138,1.264.207,1.9.093.857.182,1.723.282,2.556.076.638.161,1.247.241,1.871.1.792.2,1.594.311,2.365.088.622.185,1.217.277,1.826.113.738.222,1.486.341,2.2.1.6.206,1.166.309,1.749s.2,1.207.316,1.786c.022.118.047.231.069.349.041.211.084.415.125.623q.285,1.44.59,2.815c.042.19.083.385.126.574q.346,1.53.72,2.975c.055.214.112.424.168.635.232.877.47,1.734.716,2.564.033.11.064.225.1.334.271.9.553,1.768.841,2.614.068.2.136.392.2.587.3.844.6,1.67.912,2.457q.111.281.225.556c.162.394.337.764.506,1.148.154.349.3.707.462,1.047.227.487.466.951.7,1.419.155.3.3.618.463.914.271.5.556.984.84,1.465.138.235.271.482.412.711q.642,1.035,1.322,2l.02.029c.459.644.934,1.259,1.421,1.851.164.2.337.378.5.571.331.383.663.768,1.008,1.129.206.215.422.412.633.62.318.312.635.628.962.921.234.209.477.4.716.6.257.215.508.442.771.646.055.042.115.076.17.118q.888.675,1.82,1.266c.062.04.122.087.185.127.688.427,1.4.815,2.121,1.175.049.024.094.055.144.079.387.19.788.355,1.186.525.187.08.368.171.558.247.642.257,1.3.493,1.964.7l.033.009c.1.031.2.053.3.082.573.171,1.154.327,1.746.463.238.054.482.1.722.145.331.068.657.145,1,.2.128.021.262.031.39.051.325.05.656.09.987.13C597.325,309.7,597.752,309.746,598.186,309.781Z"></path>
    <path fill="#9ebcea" d="M735.836,244.034c.113-1.618.2-3.279.291-4.934.06-1.092.132-2.165.182-3.273.083-1.867.137-3.781.194-5.692.027-.941.069-1.858.09-2.811q.095-4.329.1-8.8c0-2.567-.033-5.088-.084-7.584-.016-.779-.042-1.544-.063-2.316-.029-1.086-.049-2.185-.088-3.256-.028-.743-.068-1.469-.1-2.206-.025-.563-.049-1.128-.076-1.687-.112-2.315-.244-4.605-.4-6.854-.02-.295-.047-.583-.068-.877q-.225-3.015-.509-5.948c-.05-.527-.1-1.055-.153-1.578-.22-2.161-.459-4.3-.727-6.392-.038-.306-.084-.605-.124-.91q-.365-2.781-.789-5.483c-.075-.486-.15-.974-.228-1.456-.306-1.879-.626-3.74-.973-5.562-.024-.131-.052-.257-.077-.388-.055-.283-.115-.56-.17-.842q-.518-2.626-1.094-5.171c-.087-.385-.171-.774-.26-1.156q-.647-2.776-1.361-5.458c-.1-.364-.2-.722-.3-1.084q-.664-2.421-1.385-4.763c-.079-.258-.154-.521-.235-.778q-.807-2.572-1.69-5.042c-.133-.376-.27-.747-.406-1.119-.589-1.62-1.2-3.217-1.832-4.773-.021-.05-.04-.1-.062-.155,0-.015-.011-.032-.018-.048-.422-1.025-.875-2.006-1.317-3-.323-.731-.63-1.485-.964-2.2-.5-1.065-1.027-2.085-1.548-3.117-.313-.621-.61-1.266-.932-1.875-.6-1.134-1.233-2.222-1.862-3.314-.271-.471-.526-.964-.8-1.427q-1.377-2.307-2.847-4.488c-.873-1.3-1.778-2.544-2.7-3.769-.211-.28-.422-.561-.635-.838-.916-1.189-1.85-2.351-2.81-3.471-.125-.145-.254-.283-.379-.427q-1.323-1.518-2.7-2.944c-.218-.227-.434-.457-.654-.68q-1.518-1.538-3.1-2.973c-.2-.185-.413-.361-.618-.543q-1.428-1.266-2.911-2.449c-.2-.158-.392-.322-.591-.477-.105-.082-.205-.169-.31-.25-1.054-.814-2.132-1.591-3.226-2.344-.27-.186-.549-.358-.821-.54q-1.424-.951-2.891-1.836-.6-.358-1.2-.7-1.419-.816-2.88-1.569c-.347-.179-.689-.367-1.039-.541-.141-.07-.278-.148-.42-.218-1.1-.539-2.231-1.043-3.369-1.531-.256-.109-.513-.216-.771-.323-1.336-.554-2.688-1.082-4.069-1.566-.136-.048-.276-.09-.412-.137-.724-.249-1.447-.5-2.183-.726-.64-.2-1.29-.382-1.939-.567-.177-.051-.351-.106-.529-.155-1.428-.4-2.883-.752-4.356-1.079-.271-.06-.542-.12-.814-.178-1.252-.265-2.514-.515-3.8-.73-.206-.034-.417-.059-.623-.093-.309-.049-.622-.092-.934-.139q-2.1-.317-4.264-.548c-.206-.022-.409-.049-.616-.07-1.578-.157-3.184-.272-4.808-.359-.367-.019-.737-.036-1.107-.052-.451-.02-.9-.05-1.35-.064q-1.839-.058-3.715-.058H601.076c1.715,0,3.4.049,5.065.122.37.016.74.033,1.107.052,1.623.087,3.229.2,4.807.359.208.021.41.048.617.07q2.162.229,4.265.548c.31.047.623.09.933.139q2.242.361,4.421.823c.273.058.543.118.813.178,1.475.327,2.931.682,4.36,1.08.175.048.346.1.521.152q2.1.6,4.127,1.295c.136.047.275.089.412.137,1.381.484,2.734,1.012,4.07,1.567.257.106.514.213.769.322q1.928.825,3.79,1.749c.35.175.692.362,1.04.541q1.46.754,2.88,1.57c.4.231.8.464,1.2.7q1.471.885,2.9,1.841c.27.18.547.351.815.535q1.806,1.242,3.539,2.6c.2.155.389.317.586.473q1.484,1.184,2.912,2.45c.206.183.416.361.621.546q1.582,1.432,3.1,2.972c.22.223.436.452.654.679q1.377,1.431,2.7,2.946c.125.144.255.281.379.426.96,1.119,1.893,2.281,2.809,3.47.214.278.425.559.636.84.92,1.224,1.824,2.471,2.7,3.768q1.469,2.181,2.847,4.488c.3.5.579,1.04.872,1.553.605,1.052,1.214,2.1,1.791,3.186.365.691.7,1.421,1.058,2.128.476.951.965,1.885,1.421,2.864.364.778.7,1.6,1.05,2.393.418.95.85,1.883,1.251,2.858.022.057.044.115.067.171.634,1.55,1.238,3.142,1.826,4.755.137.375.273.749.408,1.128q.878,2.472,1.688,5.036c.082.259.158.525.238.786q.721,2.335,1.381,4.753c.1.364.2.724.3,1.091q.714,2.679,1.361,5.454c.089.384.173.774.261,1.161q.573,2.544,1.092,5.164c.056.284.116.561.171.845q.563,2.924,1.049,5.949c.079.484.153.973.23,1.461q.42,2.7.787,5.467c.04.311.086.615.126.927.267,2.092.506,4.224.725,6.381.054.528.1,1.061.155,1.592q.28,2.927.506,5.926c.023.3.05.594.071.9.16,2.246.291,4.532.4,6.843.027.565.052,1.134.076,1.7.078,1.794.137,3.614.187,5.446.021.775.047,1.542.063,2.324.051,2.5.084,5.016.084,7.583q0,4.478-.1,8.8c-.021.953-.063,1.87-.091,2.811-.056,1.911-.109,3.825-.194,5.692-.049,1.108-.122,2.18-.182,3.273-.09,1.655-.176,3.316-.29,4.934-.08,1.143-.182,2.253-.272,3.379-.124,1.518-.244,3.042-.388,4.527-.11,1.138-.24,2.245-.363,3.363-.156,1.429-.311,2.86-.487,4.258-.141,1.118-.3,2.208-.452,3.306-.19,1.349-.379,2.7-.586,4.015-.172,1.086-.358,2.15-.542,3.216-.222,1.281-.446,2.557-.686,3.807-.2,1.049-.415,2.079-.63,3.107-.254,1.22-.514,2.431-.788,3.621q-.4,1.746-.827,3.448c-.185.735-.367,1.473-.558,2.195-.346,1.3-.709,2.575-1.078,3.838-.174.6-.34,1.2-.52,1.788-.557,1.826-1.136,3.619-1.746,5.362-.017.048-.036.093-.053.141q-.894,2.547-1.865,4.97c-.19.477-.391.936-.585,1.406-.476,1.15-.96,2.286-1.462,3.4-.248.549-.5,1.089-.755,1.628q-.728,1.545-1.492,3.034c-.258.5-.513,1.011-.777,1.506q-.9,1.684-1.846,3.293c-.182.311-.356.634-.54.941-.86,1.43-1.745,2.823-2.66,4.166q-22.821,33.5-70.277,33.5H643.6q47.459,0,70.276-33.5,1.308-1.917,2.538-3.953c.043-.069.081-.144.123-.213.184-.307.358-.63.54-.941q.944-1.613,1.846-3.293c.264-.5.519-1,.778-1.506q.762-1.489,1.491-3.034c.254-.539.508-1.079.755-1.628.5-1.11.987-2.246,1.462-3.4.194-.47.395-.93.585-1.407.061-.151.127-.3.187-.447q.867-2.2,1.67-4.5c.02-.057.042-.11.062-.166.609-1.744,1.189-3.537,1.746-5.363.179-.581.343-1.184.515-1.775.371-1.267.736-2.545,1.083-3.851.191-.72.372-1.454.555-2.185.178-.706.367-1.393.537-2.111.105-.438.192-.9.293-1.347.273-1.189.533-2.4.787-3.619.215-1.027.428-2.055.629-3.1.241-1.255.466-2.535.688-3.819.184-1.062.369-2.122.54-3.2.208-1.322.4-2.674.588-4.026.153-1.1.31-2.183.451-3.3.176-1.4.331-2.83.488-4.259.094-.862.207-1.7.294-2.57.026-.259.043-.533.068-.793.144-1.485.264-3.009.388-4.527C735.655,246.287,735.756,245.177,735.836,244.034Z"></path>
    <path fill="#9ebcea" d="M840.16,156.533c-.315.633-.639,1.264-.962,1.9q-1.3,2.541-2.676,5.058c-.308.563-.608,1.128-.922,1.69q-1.824,3.26-3.777,6.486c-.135.223-.277.444-.414.667q-2.06,3.363-4.259,6.688l-48.731,73.73h42.525l48.73-73.73c1.474-2.217,2.888-4.449,4.264-6.693.135-.221.275-.44.409-.66.084-.139.173-.276.256-.414,1.218-2.013,2.384-4.04,3.523-6.075.313-.561.613-1.125.921-1.687q1.379-2.522,2.678-5.063c.322-.63.646-1.259.959-1.89,1.1-2.2,2.163-4.416,3.17-6.644H843.328C842.323,152.118,841.256,154.33,840.16,156.533Z"></path>
    <polygon fill="#9ebcea" points="971.859 252.747 939.854 252.747 939.854 85.447 897.329 85.447 897.329 252.747 929.334 252.747 929.334 296.45 897.329 296.45 897.329 351.608 939.854 351.608 939.854 296.45 971.859 296.45 971.859 252.747"></polygon>
    <path fill="#dee8f5" d="M441.916,252.747h31.991v43.7H441.916v55.158H387V296.45H273.542V257.3L390.1,85.447h51.821ZM387.9,174.831q.92-21.477,1.457-24.94H387.9a202.11,202.11,0,0,1-16.18,29.126l-48.729,73.73H387V207.6q0-11.269.9-32.767"></path>
    <path fill="#dee8f5" d="M670.617,116.21q23.553,34.956,23.547,102.311,0,69.727-22.812,103.224t-70.276,33.5q-46,0-69.375-34.6T508.343,218.521q0-70.444,22.718-103.852,22.735-33.4,70.015-33.408Q647.063,81.261,670.617,116.21ZM629.432,288.433q8.743-21.477,8.73-69.912,0-48.967-8.812-70.362t-28.274-21.381q-19.835,0-28.368,21.381-8.559,21.394-8.553,70.362,0,48.987,8.458,70.184t28.463,21.2q19.633,0,28.356-21.476"></path>
    <path fill="#dee8f5" d="M897.329,252.747h32v43.7h-32v55.158H842.416V296.45H728.954V257.3L845.508,85.447h51.821Zm-54-77.916q.9-21.477,1.457-24.94h-1.457a204.738,204.738,0,0,1-16.18,29.126l-48.73,73.73h64V207.6q0-11.269.913-32.767"></path>
  </g>
</svg>
