<svg viewBox="0 0 1024 1024" xmlns="http://www.w3.org/2000/svg">
  <path
    d="M499.0546170311111 431.73862741333335c0-2.5890770488888886 0-2.5890770488888886 0 0 0-2.5890770488888886 0 0 0 0z m168.28997518222224 186.4135111111111z m5.17815296 0h-5.17815296s2.5890770488888886 2.5890770488888886 5.17815296 0zM506.82184703999997 64.08975815111108c-243.37319480888888 0-442.7320888888889 196.76981703111107-442.7320888888889 442.7320888888889s196.76981703111107 442.7320888888889 442.7320888888889 442.7320888888889c243.37319480888888 0 442.7320888888889-196.76981703111107 442.7320888888889-442.7320888888889S752.7841188977778 64.08975815111108 506.82184703999997 64.08975815111108z m282.20934257777776 173.4681281422222c-15.534458879999999 0-25.890765937777775 0-38.836147768888885 7.767230008888888-5.17815296 2.5890770488888886-7.767230008888888 7.767230008888888-15.534458879999999 10.35630592-5.17815296 2.5890770488888886-12.945382968888888 0-18.123535928888888 2.5890770488888886-20.71261184 7.767230008888888-18.123535928888888 49.19245482666667-44.01430186666666 44.014300728888884-12.945382968888888-2.5890770488888886-20.71261184-18.123535928888888-28.47984184888889-28.47984184888889-5.17815296-7.767230008888888-15.534458879999999-15.534458879999999-7.7672288711111115-25.890765937777775h-10.356307057777778c5.17815296-10.35630592 18.123535928888888-7.767230008888888 20.712612977777777-12.945381831111112 5.17815296-12.945382968888888-15.534458879999999-12.945382968888888-23.301688888888886-15.534460017777777 7.767230008888888-7.767230008888888 10.35630592 2.5890770488888886 18.123535928888888 0 7.767230008888888-2.5890770488888886-2.5890770488888886-10.35630592-7.767230008888888-12.945382968888888-2.5890770488888886 0-25.890765937777775 7.767230008888888-12.945382968888888-5.17815296-18.123535928888888-10.35630592-36.247071857777776-23.301688888888886-54.37060664888888-33.657994808888894-2.5890770488888886 12.945382968888888 23.301688888888886 20.71261184 33.657994808888894 23.301688888888886-2.5890770488888886 5.17815296-10.35630592 12.945382968888888-15.534458879999999 10.35630592-5.17815296-2.5890770488888886-2.5890770488888886-12.945382968888888-12.945382968888888-10.35630592-5.17815296 15.534458879999999 12.945382968888888 10.35630592 15.534458879999999 20.712612977777777 2.5890770488888886 10.35630592-7.767230008888888 5.17815296-10.35630592 5.17815296 0 0-7.767230008888888-7.767230008888888-7.767230008888888-2.5890770488888886 0 5.17815296 10.35630592 5.17815296 12.945382968888888 10.35630592-12.945382968888888 0-20.71261184-5.17815296-31.068918897777777-10.35630592-12.945382968888888-7.767230008888888-18.123535928888888-7.767230008888888-33.657994808888894-7.767230008888888 5.17815296-2.5890770488888886 10.35630592-2.5890770488888886 15.534458879999999-5.17815296 2.5890770488888886-2.5890770488888886 10.35630592-10.35630592 10.356307057777778-12.945381831111112 2.5890770488888886-7.767230008888888 0-7.767230008888888-7.767230008888888-12.945382968888888-2.5890770488888886-2.5890770488888886-10.35630592-12.945382968888888-20.71261184-12.945382968888888-28.47984184888889-5.17815296-10.35630592 25.890765937777775-31.068918897777777 31.068918897777777-5.17815296 0-15.534458879999999-2.5890770488888886-18.123535928888888 2.5890759111111112-2.5890770488888886 2.5890770488888886-2.5890770488888886 10.35630592-5.17815296 12.945382968888888-5.17815296 5.17815296-12.945382968888888 5.17815296-18.123535928888888 10.35630592-5.17815296 2.5890770488888886-18.123535928888888 12.945382968888888-20.71261184 18.123535928888888-12.945382968888888 23.301688888888886 25.890765937777775 31.068918897777777 41.42522368 36.247071857777776 7.767230008888888 2.5890770488888886 25.890765937777775 7.767230008888888 28.479842986666664 12.945382968888888 5.17815296 7.767230008888888-5.17815296 12.945382968888888 5.17815296 18.123535928888888 2.5890770488888886 2.5890770488888886 10.35630592 2.5890770488888886 12.945381831111112-2.5890770488888886 5.17815296-5.17815296-2.5890770488888886-5.17815296-2.5890759111111112-12.945382968888888-2.5890770488888886-10.35630592 2.5890770488888886-7.767230008888888 7.767230008888888-10.35630592 10.35630592-7.767230008888888 7.767230008888888-10.35630592 5.17815296-23.301688888888886-2.5890770488888886-5.17815296-10.35630592-23.301688888888886-2.5890770488888886-28.47984184888889 7.767230008888888-5.17815296 25.890765937777775 2.5890770488888886 33.657994808888894 5.17815296 7.767230008888888 0 12.945382968888888 10.35630592 15.534460017777777 15.534458879999999 2.5890770488888886 2.5890770488888886 7.767230008888888 7.767230008888888 12.945381831111112 7.767230008888888 7.767230008888888 0 5.17815296-7.767230008888888 7.767230008888888-10.35630592 12.945382968888888-7.767230008888888 15.534458879999999 2.5890770488888886 20.712612977777777 12.945382968888888 5.17815296 10.35630592 7.767230008888888 12.945382968888888 15.534458879999999 20.71261184 2.5890770488888886 2.5890770488888886 20.71261184 12.945382968888888 18.123535928888888 20.71261184 0 5.17815296-18.123535928888888 10.35630592-23.301688888888886 12.945382968888888-18.123535928888888 5.17815296-51.78153073777778-10.35630592-54.37060778666666 18.123535928888888 7.767230008888888-2.5890770488888886 25.890765937777775-18.123535928888888 31.068918897777777-10.35630592 2.5890770488888886 2.5890770488888886-2.5890770488888886 7.767230008888888 0 12.945382968888888 2.5890770488888886 10.35630592 10.35630592 7.767230008888888 20.71261184 5.17815296h-2.5890759111111112c10.35630592-5.17815296 10.35630592-5.17815296 15.534458879999999-12.945382968888888 2.5890770488888886-2.5890770488888886 5.17815296-10.35630592 7.767230008888888-12.945382968888888 7.767230008888888-7.767230008888888 10.35630592-2.5890770488888886 15.534458879999999 2.5890770488888886 2.5890770488888886 2.5890770488888886 12.945382968888888 20.71261184 10.35630592 18.123535928888888-15.534458879999999-2.5890770488888886-28.47984184888889-2.5890770488888886-41.42522481777778 5.17815296-7.767230008888888 5.17815296-12.945382968888888 10.35630592-20.71261184 12.945382968888888-2.5890770488888886 0-18.123535928888888 2.5890770488888886-15.534458879999999 0 2.5890770488888886-2.5890770488888886 10.35630592-5.17815296 15.534458879999999-10.356307057777778-10.35630592-5.17815296-18.123535928888888 5.17815296-25.890765937777775 10.356307057777778-7.767230008888888 2.5890770488888886-10.35630592 10.35630592-15.534458879999999 18.123534791111112-2.5890770488888886 2.5890770488888886-7.767230008888888 2.5890770488888886-10.35630592 7.767230008888888-2.5890770488888886 2.5890770488888886-2.5890770488888886 7.767230008888888-5.17815296 12.945382968888888-2.5890770488888886 2.5890770488888886-7.767230008888888 0-7.767230008888888 5.17815296-2.5890770488888886 5.17815296 2.5890770488888886 7.767230008888888 0 12.945382968888888s-12.945382968888888 10.35630592-18.123535928888888 15.534458879999999l2.5890770488888886-2.5890759111111112c-5.17815296 5.17815296-10.35630592 7.767230008888888-12.945382968888888 12.945381831111112 2.5890770488888886 7.767230008888888 7.767230008888888 25.890765937777775 5.17815296 28.47984184888889-12.945382968888888 10.35630592-20.71261184-10.35630592-25.890765937777775-15.534458879999999-12.945382968888888-18.123535928888888-36.247071857777776-5.17815296-54.37060664888888-5.17815296-20.71261184 2.5890770488888886-41.42522481777778 28.47984184888889-28.47984184888889 51.78153073777778 5.17815296 10.35630592 18.123535928888888 15.534458879999999 28.47984184888889 12.945382968888888 10.35630592-2.5890770488888886 12.945382968888888-18.123535928888888 23.301688888888886-18.123535928888888 18.123535928888888 0 0 18.123535928888888 0 25.890765937777775-2.5890770488888886 5.17815296 2.5890770488888886 7.767230008888888 7.7672288711111115 7.7672288711111115 5.17815296 0 12.945382968888888-2.5890770488888886 15.534460017777777 0 2.5890770488888886 2.5890770488888886 2.5890770488888886 10.35630592 5.17815296 7.767230008888888-7.767230008888888 5.17815296-5.17815296 20.71261184 2.5890759111111112 25.8907648 7.767230008888888 5.17815296 18.123535928888888 0 25.890765937777775 2.5890770488888886 15.534458879999999 5.17815296 7.767230008888888 0 23.301688888888886-10.35630592 10.35630592-5.17815296 10.35630592 0 18.123535928888888 0 5.17815296 0 7.767230008888888-5.17815296 15.534458879999999-5.17815296 5.17815296 2.5890770488888886 7.767230008888888 5.17815296 15.534460017777777 7.7672288711111115h7.7672288711111115c12.945382968888888 2.5890770488888886 23.301688888888886 10.35630592 33.657994808888894 18.123535928888888 7.767230008888888 5.17815296 15.534458879999999 5.17815296 25.890765937777775 7.767230008888888 7.767230008888888 2.5890770488888886 20.71261184 12.945382968888888 20.71261184 23.301688888888886 0 2.5890770488888886-7.767230008888888 10.35630592-7.7672288711111115 12.945382968888888 2.5890770488888886 2.5890770488888886 15.534458879999999-2.5890770488888886 18.123535928888888-2.5890770488888886 0 2.5890770488888886-10.35630592 7.767230008888888-10.356307057777778 5.17815296 0 2.5890770488888886 5.17815296 5.17815296 7.767230008888888 5.17815296 5.17815296-15.534458879999999 12.945382968888888-5.17815296 20.712612977777777-2.5890759111111112 7.767230008888888 2.5890770488888886 18.123535928888888 2.5890770488888886 25.8907648 5.17815296 7.767230008888888 2.5890770488888886 23.301688888888886 7.767230008888888 28.47984184888889 12.945382968888888 5.17815296 7.767230008888888 2.5890770488888886 18.123535928888888-2.5890759111111112 25.8907648-5.17815296 10.35630592-15.534458879999999 12.945382968888888-20.712612977777777 23.301688888888886-2.5890770488888886 7.767230008888888 0 18.123535928888888-2.5890759111111112 25.890765937777775-2.5890770488888886 12.945382968888888-5.17815296 7.767230008888888-12.945382968888888 15.534458879999999s0 5.17815296-10.35630592 10.35630592-18.123535928888888 2.5890770488888886-25.890765937777775 12.945382968888888v-2.5890759111111112c-2.5890770488888886 5.17815296-5.17815296 12.945382968888888-5.17815296 15.534458879999999-2.5890770488888886 7.767230008888888-7.767230008888888 10.35630592-12.945382968888888 15.534458879999999-2.5890770488888886 2.5890770488888886-20.71261184 28.47984184888889-20.71261184 25.890765937777775-2.5890770488888886-2.5890770488888886-15.534458879999999 2.5890770488888886-15.534460017777777 0 0 2.5890770488888886 0 2.5890770488888886 2.5890770488888886 5.17815296-2.5890770488888886 20.71261184-12.945382968888888 23.301688888888886-33.657994808888894 23.301688888888886 2.5890770488888886 10.35630592-7.767230008888888 7.767230008888888-12.945382968888888 12.945382968888888-2.5890770488888886 2.5890770488888886-2.5890770488888886 12.945382968888888-5.17815296 15.534458879999999 0 2.5890770488888886-10.35630592 12.945382968888888-10.35630592 15.534458879999999 0 2.5890770488888886 2.5890770488888886 5.17815296 5.17815296 7.767230008888888-15.534458879999999 2.5890770488888886-28.47984184888889 5.17815296-44.01430186666666 5.17815296 2.5890770488888886-2.5890770488888886 2.5890770488888886-7.767230008888888-5.17815296-7.767230008888888 2.5890770488888886-7.767230008888888 7.767230008888888-10.35630592 10.35630592-15.534458879999999v-7.767230008888888c2.5890770488888886-10.35630592 2.5890770488888886-5.17815296 0-12.945381831111112-5.17815296-18.123535928888888 2.5890770488888886-23.301688888888886 7.767230008888888-41.42522481777778 5.17815296-18.123535928888888 5.17815296-38.836147768888885 7.767230008888888-59.548760746666666 2.5890770488888886-7.767230008888888 5.17815296-28.47984184888889 0-36.247071857777776-2.5890770488888886-10.35630592-18.123535928888888-18.123535928888888-25.890765937777775-23.301688888888886-10.35630592-10.35630592-15.534458879999999-18.123535928888888-23.301688888888886-31.068917759999998-2.5890770488888886-5.17815296-7.767230008888888-10.35630592-10.35630592-18.123535928888888-5.17815296-12.945382968888888 0-5.17815296 0-12.945382968888888s0-15.534458879999999 2.5890770488888886-23.301688888888886c2.5890770488888886-7.767230008888888 10.35630592-15.534458879999999 15.534458879999999-23.301688888888886 2.5890770488888886-7.767230008888888 0-18.123535928888888-7.767230008888888-20.712612977777777-5.17815296-2.5890770488888886-10.35630592 2.5890770488888886-12.945382968888888 0-5.17815296 0-12.945382968888888-5.17815296-18.123534791111112-10.35630592-7.767230008888888-5.17815296-10.35630592-12.945382968888888-18.123535928888888-18.123535928888888-5.17815296-5.17815296-10.35630592-2.5890770488888886-18.123535928888888-2.5890759111111112-7.767230008888888-2.5890770488888886-10.35630592-10.35630592-15.534460017777777-12.945382968888888-7.767230008888888-5.17815296-12.945382968888888 2.5890770488888886-20.71261184 0-7.767230008888888 0-18.123535928888888-10.35630592-25.890765937777775-12.945382968888888-15.534458879999999-5.17815296-23.301688888888886-12.945382968888888-28.47984184888889-28.47984184888889-5.17815296-12.945382968888888-12.945382968888888-18.123535928888888-20.71261184-28.47984184888889-7.767230008888888-10.35630592-10.35630592-18.123535928888888-23.301688888888886-23.301688888888886-2.5890770488888886 0 2.5890770488888886 10.35630592 2.5890759111111112 12.945382968888888 5.17815296 7.767230008888888 12.945382968888888 15.534458879999999 18.123535928888888 25.8907648 7.767230008888888 12.945382968888888 5.17815296 12.945382968888888-2.5890759111111112 2.5890770488888886-10.35630592-12.945382968888888-20.71261184-25.890765937777775-28.47984184888889-38.836147768888885 5.17815296 5.17815296 5.17815296 0 0-5.178154097777777s-12.945382968888888-7.767230008888888-15.534460017777777-12.945381831111112c-18.123535928888888-15.534458879999999-20.71261184-38.836147768888885-20.71261184-62.137837795555555 0-7.767230008888888 2.5890770488888886-12.945382968888888 2.5890759111111112-20.71261184 0-5.17815296-5.17815296-10.35630592-10.35630592-15.534458879999999-2.5890770488888886-2.5890770488888886-5.17815296-7.767230008888888-5.17815296-7.767230008888888-5.17815296-7.767230008888888-7.767230008888888-12.945382968888888-12.945382968888888-18.123535928888888-2.5890770488888886-2.5890770488888886-12.945382968888888-10.35630592-23.301688888888886-18.123535928888888 41.42522481777778-51.78153073777778 95.79583260444444-93.20675555555555 157.93366926222222-119.09752035555556 0 2.5890770488888886 2.5890770488888886 5.17815296 2.5890770488888886 10.35630592 7.767230008888888 7.767230008888888 12.945382968888888 7.767230008888888 20.71261184 10.35630592 0 10.35630592-15.534458879999999 12.945382968888888-23.301688888888886 10.35630592-10.35630592-2.5890770488888886-23.301688888888886-5.17815296-31.068917759999998 5.17815296 5.17815296 2.5890770488888886 20.71261184 15.534458879999999 18.123534791111112 2.5890770488888886h31.068918897777777c5.17815296 0 18.123535928888888 5.17815296 20.712612977777777 2.5890759111111112 2.5890770488888886 0 2.5890770488888886-7.767230008888888 5.17815296-10.35630592-2.5890770488888886 0-5.17815296-2.5890770488888886-7.767230008888888 0 7.767230008888888-7.767230008888888 12.945382968888888-2.5890770488888886 23.301688888888886 2.5890770488888886-10.35630592 5.17815296-2.5890770488888886 20.71261184 5.17815296 7.7672288711111115 7.767230008888888-10.35630592-2.5890770488888886-15.534458879999999-10.35630592-20.71261184 10.35630592-12.945382968888888 15.534458879999999-12.945382968888888 25.8907648 0 2.5890770488888886-7.767230008888888 7.767230008888888-5.17815296 15.534460017777777-5.17815296v-2.5890770488888886c-2.5890770488888886 0-7.767230008888888-2.5890770488888886-10.35630592-2.5890759111111112 7.767230008888888-12.945382968888888 2.5890770488888886-15.534458879999999 12.945381831111112-18.123535928888888 7.767230008888888-2.5890770488888886 31.068918897777777 0 36.247071857777776-7.767230008888888-15.534458879999999 2.5890770488888886-36.247071857777776 5.17815296-51.78153073777778 10.35630592-7.767230008888888 2.5890770488888886-12.945382968888888 12.945382968888888-20.71261184 7.767230008888888-7.767230008888888-7.767230008888888 5.17815296-18.123535928888888 10.35630592-20.71261184h-2.5890770488888886c25.890765937777775-5.17815296 54.37060778666666-7.767230008888888 82.85044963555556-7.767230008888888 18.123535928888888 0 36.247071857777776 2.5890770488888886 54.37060778666666 2.5890770488888886-5.17815296 2.5890770488888886-2.5890770488888886 5.17815296-5.17815296 7.7672288711111115-7.767230008888888 5.17815296-23.301688888888886 10.35630592-33.65799594666667 15.534460017777777 12.945382968888888 0 44.014300728888884 12.945382968888888 49.19245482666667-5.178154097777777-5.17815296 0-7.767230008888888 0-12.945382968888888-2.5890759111111112 7.767230008888888-5.17815296 15.534458879999999-10.35630592 25.890765937777775-12.945382968888888 75.08321962666668 18.123535928888888 147.57736334222224 59.548760746666666 199.35889294222224 116.50844444444445 2.5890770488888886 0 0 0 0 0z m72.49414371555555 155.34459221333333c0-2.5890770488888886 2.5890770488888886-2.5890770488888886 2.5890770488888886-2.5890759111111112 2.5890770488888886-2.5890770488888886 0-5.17815296 2.5890759111111112-7.767230008888888 2.5890770488888886-2.5890770488888886 5.17815296-2.5890770488888886 7.767230008888888-5.17815296l2.5890759111111112-2.5890759111111112c7.767230008888888 18.123535928888888 12.945382968888888 36.247071857777776 15.534460017777777 56.95968369777778l-7.767230008888888 2.5890759111111112c-5.17815296 0-7.767230008888888-2.5890770488888886-10.35630592-5.17815296l-10.35630592-10.35630592c-2.5890770488888886-5.17815296 0-7.767230008888888 0-12.945382968888888-2.5890770488888886-5.17815296-5.17815296-10.35630592-2.5890770488888886-12.945382968888888z m5.17815296 201.94797112888887c-7.767230008888888-7.767230008888888-15.534458879999999-15.534458879999999-20.71261184-23.301688888888886-5.17815296-10.35630592-2.5890770488888886-18.123535928888888-2.5890770488888886-28.47984184888889 0-7.767230008888888-5.17815296-20.71261184 0-28.47984184888889l7.767230008888888-7.767230008888888c2.5890770488888886-5.17815296 2.5890770488888886-10.35630592 7.7672288711111115-15.534458879999999 5.17815296-5.17815296 10.35630592-7.767230008888888 15.534460017777777-12.945382968888888 5.17815296-5.17815296 5.17815296-7.767230008888888 7.7672288711111115-15.534460017777777 2.5890770488888886-5.17815296 7.767230008888888-12.945382968888888 12.945382968888888-15.534458879999999 2.5890770488888886 20.71261184 5.17815296 38.836147768888885 5.17815296 59.548760746666666 0 33.657994808888894-5.17815296 69.90506666666667-12.945381831111112 100.97398556444443-7.767230008888888-2.5890770488888886-15.534458879999999-7.767230008888888-20.712612977777777-12.945382968888888z m0 0"></path>
</svg>